<svg xmlns="http://www.w3.org/2000/svg" viewBox="0 0 500 500"><g id="freepik--background-complete--inject-155"><rect x="416.78" y="398.49" width="33.12" height="0.25" style="fill:#ebebeb"></rect><rect x="322.53" y="401.21" width="8.69" height="0.25" style="fill:#ebebeb"></rect><rect x="396.59" y="389.21" width="19.19" height="0.25" style="fill:#ebebeb"></rect><rect x="52.46" y="390.89" width="43.19" height="0.25" style="fill:#ebebeb"></rect><rect x="104.56" y="390.89" width="6.33" height="0.25" style="fill:#ebebeb"></rect><rect x="131.47" y="395.11" width="93.68" height="0.25" style="fill:#ebebeb"></rect><path d="M237,337.8H43.91a5.71,5.71,0,0,1-5.7-5.71V60.66A5.71,5.71,0,0,1,43.91,55H237a5.71,5.71,0,0,1,5.71,5.71V332.09A5.71,5.71,0,0,1,237,337.8ZM43.91,55.2a5.46,5.46,0,0,0-5.45,5.46V332.09a5.46,5.46,0,0,0,5.45,5.46H237a5.47,5.47,0,0,0,5.46-5.46V60.66A5.47,5.47,0,0,0,237,55.2Z" style="fill:#ebebeb"></path><path d="M453.31,337.8H260.21a5.72,5.72,0,0,1-5.71-5.71V60.66A5.72,5.72,0,0,1,260.21,55h193.1A5.71,5.71,0,0,1,459,60.66V332.09A5.71,5.71,0,0,1,453.31,337.8ZM260.21,55.2a5.47,5.47,0,0,0-5.46,5.46V332.09a5.47,5.47,0,0,0,5.46,5.46h193.1a5.47,5.47,0,0,0,5.46-5.46V60.66a5.47,5.47,0,0,0-5.46-5.46Z" style="fill:#ebebeb"></path><rect y="382.4" width="500" height="0.25" style="fill:#ebebeb"></rect><path d="M449.39,116.23a22.88,22.88,0,0,1-5.69,9.52c-6.91,6.63-21.24,5.23-28.13-4.06-3.31-4.46-5.08-10.25-3.43-15.56,1.49-4.82,5.11-8.63,7.88-12.85,3.45-5.25,5.65-11.9,3.6-17.85,0,0,6.84,7.71,6.32,10.8,2.68-8.36.41-12.54-4-20.38A31.29,31.29,0,0,0,434,73.38a39.62,39.62,0,0,1,7.87,7.38,9.19,9.19,0,0,0,.95,1.49c.48.81.94,1.64,1.36,2.48,1.68,3.34,2.86,8.48,3.19,13.88a18.37,18.37,0,0,0,.73-7.3A36.27,36.27,0,0,1,449.39,116.23Z" style="fill:#e0e0e0"></path><path d="M434.31,120.19c2.09,1.56,3,5,2.5,8.59a24.5,24.5,0,0,1-1.65,5.37,442,442,0,0,1-21.48,46.26,18.7,18.7,0,0,0-6.62-12.35c-2.58-2.28-9.41-4.46-10.48-8.68C396.58,159.38,422.17,111.12,434.31,120.19Z" style="fill:#f5f5f5"></path><path d="M345.19,240.39c9.56-19,19.11-38.08,29.79-56.19,5.64-9.57,11.85-19.15,19.69-24.84s18.15-4.26,22.59,2.93c3.44,5.58,2.17,12.69-.18,20.72s-6.46,15.31-10.6,22.4c-25.68,44-55.46,86.6-86.26,130.67-5.32,7.62-10.72,15.34-17.08,22.32-5,5.44-16.5,11.59-14.63,1.23.56-3.08,9.1-20.31,11.3-25.26,9-20.14,18.6-40.13,28.43-60Q336.66,257.33,345.19,240.39Z" style="fill:#e6e6e6"></path><path d="M389.33,170c2.74-3.43,6.09-7,11.6-4.89,3,4,.65,6.11-1.41,7.92-28,24.72-97.39,171.48-103.18,180.09C298.92,350.18,363,202.85,389.33,170Z" style="fill:#fafafa"></path><path d="M87.18,381.69l-1.83-.8c.27-.63,27.12-64,10.5-136.91-16.56-72.66-51.09-89.27-51.43-89.43l.83-1.82c1.45.66,35.74,17.06,52.55,90.8C114.57,317.11,87.46,381.05,87.18,381.69Z" style="fill:#e0e0e0"></path><rect x="83.78" y="208.19" width="7.61" height="7.61" transform="translate(102.7 -16.88) rotate(26.23)" style="fill:#e0e0e0"></rect><rect x="43.23" y="152.52" width="5.71" height="5.71" style="fill:#e0e0e0"></rect><rect x="84.26" y="378.92" width="5.71" height="5.71" style="fill:#e0e0e0"></rect><path d="M125.78,320.29,73.14,169.44a.5.5,0,0,0-.64-.3.5.5,0,0,0-.31.63l52.64,150.85a.51.51,0,0,0,.48.34.45.45,0,0,0,.16,0A.51.51,0,0,0,125.78,320.29Z" style="fill:#e0e0e0"></path><path d="M75.24,169.63a2.58,2.58,0,1,1-2.55-2.6A2.57,2.57,0,0,1,75.24,169.63Z" style="fill:#e0e0e0"></path><path d="M127.87,321a2.57,2.57,0,1,1-2.54-2.6A2.56,2.56,0,0,1,127.87,321Z" style="fill:#e0e0e0"></path><polygon points="130.33 251.09 127.86 278.01 97.98 288.34 79.42 268.68 84.61 217.31 94.53 213.88 130.33 251.09" style="fill:#ebebeb"></polygon><polygon points="131.45 288.44 102.55 298.98 98.84 288.23 127.73 277.7 131.45 288.44" style="fill:#e0e0e0"></polygon><rect x="96.63" y="214.32" width="2.22" height="53.6" transform="translate(-73.38 45.14) rotate(-19.06)" style="fill:#fff"></rect><path d="M108.81,265.66a2.45,2.45,0,1,1-3.11-1.52A2.45,2.45,0,0,1,108.81,265.66Z" style="fill:#fff"></path><path d="M137.25,176.46,63.11,143.35,96.23,69.21l74.14,33.12ZM65.76,142.34l70.48,31.48,31.49-70.48L97.24,71.85Z" style="fill:#e0e0e0"></path></g><g id="freepik--Shadow--inject-155"><ellipse id="freepik--path--inject-155" cx="250" cy="415.69" rx="193.89" ry="11.32" style="fill:#f5f5f5"></ellipse></g><g id="freepik--Palette--inject-155"><path d="M422.24,274.61c-1.38-43.71-20.71-96.06-45.58-115.17-81-62.19-140.69,1.9-151.38,19.06s-16.37,38.13-20.66,59c-4,19.54-7,39.58-6.53,59.66s4.55,40.33,13.7,56.89c4.56,8.23,11,15.9,19.15,16.92,11.38,1.45,20.94-10.31,27.78-21.66s14-24.36,25.26-27.45c9.64-2.64,19.74,3.31,26.17,12.36s9.78,20.72,12.4,32.29c2,8.89,3.66,18,7,26.23s8.54,15.78,15.61,18.95c6.75,3,14.48,1.75,21.08-2s12.2-9.64,17.31-16C408.8,362.37,423.6,318.34,422.24,274.61Zm-78.31,82.17a14.37,14.37,0,1,1,14.8-13.92A14.36,14.36,0,0,1,343.93,356.78Z" style="fill:#407BFF"></path><path d="M419.07,272.56c-1.38-43.71-20.7-96.06-45.58-115.17-80.95-62.19-140.69,1.9-151.37,19.06s-16.38,38.13-20.67,59c-4,19.54-7,39.58-6.53,59.65s4.55,40.33,13.7,56.89c4.56,8.24,11,15.91,19.15,16.93,11.38,1.44,20.95-10.31,27.78-21.66s14.05-24.36,25.26-27.45c9.64-2.64,19.74,3.31,26.17,12.35s9.78,20.73,12.4,32.3c2,8.89,3.66,18,7,26.23s8.54,15.78,15.61,18.95c6.75,3,14.48,1.75,21.08-2s12.2-9.64,17.31-16C405.63,360.32,420.43,316.28,419.07,272.56Zm-78.31,82.17a14.37,14.37,0,1,1,14.8-13.92A14.36,14.36,0,0,1,340.76,354.73Z" style="fill:#407BFF"></path><g style="opacity:0.5"><path d="M419.07,272.56c-1.38-43.71-20.7-96.06-45.58-115.17-80.95-62.19-140.69,1.9-151.37,19.06s-16.38,38.13-20.67,59c-4,19.54-7,39.58-6.53,59.65s4.55,40.33,13.7,56.89c4.56,8.24,11,15.91,19.15,16.93,11.38,1.44,20.95-10.31,27.78-21.66s14.05-24.36,25.26-27.45c9.64-2.64,19.74,3.31,26.17,12.35s9.78,20.73,12.4,32.3c2,8.89,3.66,18,7,26.23s8.54,15.78,15.61,18.95c6.75,3,14.48,1.75,21.08-2s12.2-9.64,17.31-16C405.63,360.32,420.43,316.28,419.07,272.56Zm-78.31,82.17a14.37,14.37,0,1,1,14.8-13.92A14.36,14.36,0,0,1,340.76,354.73Z" style="fill:#fff"></path></g><path d="M312.36,257.86a36.86,36.86,0,0,0-5,10.47,15.36,15.36,0,0,0-1,6.12,5.93,5.93,0,0,0,3.21,5,9.3,9.3,0,0,1,2.07.89c1.53,1.17,1,3.63,1.95,5.32,1.08,2,3.9,2.34,6,1.46s3.58-2.66,5.15-4.27a15.05,15.05,0,0,1,3.87-3.11c1.07-.55,2.24-.89,3.35-1.36,5.05-2.16,8.52-7.14,9.94-12.44a9,9,0,0,0,.24-4.83,7.52,7.52,0,0,0-5.37-4.76,22.13,22.13,0,0,0-7.45-.33,23,23,0,0,0-2.9-3.78,6.49,6.49,0,0,0-4.57-1.32C318.22,251.33,314.34,255.18,312.36,257.86Z" style="fill:#263238"></path><path d="M299.21,237a36.86,36.86,0,0,0-5,10.47,15.36,15.36,0,0,0-1,6.12,6,6,0,0,0,3.21,5,9.3,9.3,0,0,1,2.07.89c1.53,1.17,1,3.63,1.95,5.32,1.08,2,3.9,2.34,6,1.46s3.59-2.66,5.15-4.27a15.4,15.4,0,0,1,3.87-3.11c1.08-.55,2.24-.89,3.35-1.36,5.06-2.16,8.52-7.14,9.94-12.45a9,9,0,0,0,.24-4.82c-.68-2.4-3-4.08-5.37-4.76a21.83,21.83,0,0,0-7.44-.33,24.63,24.63,0,0,0-2.9-3.79,6.52,6.52,0,0,0-4.58-1.31C305.08,230.49,301.19,234.34,299.21,237Z" style="fill:#fff"></path><path d="M398.6,318c3.68.25,7.38,0,11.06.15a2.12,2.12,0,0,1,1.33.4c.8.74.05,2.08-.86,2.69-3.62,2.41-8.46.64-12.41-1.17-.39,1,.56,2,1.32,2.85s1.33,2.24.43,2.89c-.62.44-1.48.13-2.16-.21a60.25,60.25,0,0,1-13.56-9.17C385.67,313.21,395.33,317.77,398.6,318Z" style="fill:#fff;opacity:0.6000000000000001"></path><path d="M403.11,297a3.57,3.57,0,0,0-3.11,4.33,3.82,3.82,0,0,0,4.85,2.43,4.21,4.21,0,0,0,2.54-4.4,4.91,4.91,0,0,0-3.43-3.9c-.69-.21-1.79.47-1.21.9Z" style="fill:#407BFF"></path><path d="M395.43,303.21a1.19,1.19,0,0,0-1,1.43,1.27,1.27,0,0,0,1.6.8,1.38,1.38,0,0,0,.84-1.45,1.62,1.62,0,0,0-1.13-1.29c-.23-.07-.59.16-.4.3Z" style="fill:#407BFF"></path><path d="M377.1,310.53a2.57,2.57,0,0,0-2.23,3.1,2.74,2.74,0,0,0,3.47,1.74,3,3,0,0,0,1.81-3.15,3.52,3.52,0,0,0-2.44-2.79c-.5-.15-1.29.34-.87.65Z" style="fill:#263238"></path><path d="M375,321.86a17.34,17.34,0,0,0-10.08,10.57,12.32,12.32,0,0,0-.58,6.47c.23,1.07.66,2.1.79,3.19.61,5.29-5.84,9-6.29,14.34-.1,1.22.17,2.58,1.65,3.07a3,3,0,0,0,3.28-1.15c1.73-2.28,1-5.09,1.48-7.69.47-2.77,1.53-3.91,4.06-5.14,3.76-.59-2.52,14.67-1.76,24.87.08,1.18-1.34,7.09-.22,7.47,3.57,1.2,4.24-6.25,3.69-11.14A21.17,21.17,0,0,1,372,356.6a1.44,1.44,0,0,1,2.71,1c-.28,1-.66,1.92-1,2.83-.86,2.46-.6,6.08,2,6.58,1.42-3.51.9-7.47,1-11.26a16,16,0,0,1,1.38-6.59,2,2,0,0,1,3.71.63,39.15,39.15,0,0,1,.09,8.79c1.55.66,3.28-.9,3.57-2.56s-.33-3.33-.69-5-.38-3.59.83-4.76a7.9,7.9,0,0,1,2.43-1.3C404.24,337.85,391,315.57,375,321.86Z" style="fill:#407BFF"></path><path d="M375,321.86a17.34,17.34,0,0,0-10.08,10.57,12.32,12.32,0,0,0-.58,6.47c.23,1.07.66,2.1.79,3.19.61,5.29-5.84,9-6.29,14.34-.1,1.22.17,2.58,1.65,3.07a3,3,0,0,0,3.28-1.15c1.73-2.28,1-5.09,1.48-7.69.47-2.77,1.53-3.91,4.06-5.14,3.76-.59-2.52,14.67-1.76,24.87.08,1.18-1.34,7.09-.22,7.47,3.57,1.2,4.24-6.25,3.69-11.14A21.17,21.17,0,0,1,372,356.6a1.44,1.44,0,0,1,2.71,1c-.28,1-.66,1.92-1,2.83-.86,2.46-.6,6.08,2,6.58,1.42-3.51.9-7.47,1-11.26a16,16,0,0,1,1.38-6.59,2,2,0,0,1,3.71.63,39.15,39.15,0,0,1,.09,8.79c1.55.66,3.28-.9,3.57-2.56s-.33-3.33-.69-5-.38-3.59.83-4.76a7.9,7.9,0,0,1,2.43-1.3C404.24,337.85,391,315.57,375,321.86Z" style="opacity:0.7000000000000001"></path><path d="M359.27,369.52a2.56,2.56,0,0,0-2.22,3.09,2.72,2.72,0,0,0,3.47,1.74,3,3,0,0,0,1.81-3.14,3.51,3.51,0,0,0-2.45-2.79c-.49-.15-1.28.34-.86.65Z" style="fill:#407BFF"></path><path d="M359.27,369.52a2.56,2.56,0,0,0-2.22,3.09,2.72,2.72,0,0,0,3.47,1.74,3,3,0,0,0,1.81-3.14,3.51,3.51,0,0,0-2.45-2.79c-.49-.15-1.28.34-.86.65Z" style="fill:#407BFF"></path><path d="M359.27,369.52a2.56,2.56,0,0,0-2.22,3.09,2.72,2.72,0,0,0,3.47,1.74,3,3,0,0,0,1.81-3.14,3.51,3.51,0,0,0-2.45-2.79c-.49-.15-1.28.34-.86.65Z" style="fill:#407BFF"></path><path d="M359.27,369.52a2.56,2.56,0,0,0-2.22,3.09,2.72,2.72,0,0,0,3.47,1.74,3,3,0,0,0,1.81-3.14,3.51,3.51,0,0,0-2.45-2.79c-.49-.15-1.28.34-.86.65Z" style="opacity:0.7000000000000001"></path><g style="opacity:0.8"><path d="M387.82,318.87a3.58,3.58,0,0,0-3.12,4.33,3.82,3.82,0,0,0,4.85,2.44,4.22,4.22,0,0,0,2.54-4.41,4.9,4.9,0,0,0-3.42-3.9c-.7-.21-1.8.47-1.22.91Z" style="fill:#fff"></path><path d="M380.14,325.09a1.18,1.18,0,0,0-1,1.43,1.25,1.25,0,0,0,1.6.8,1.4,1.4,0,0,0,.84-1.45,1.64,1.64,0,0,0-1.13-1.29c-.23-.07-.6.16-.4.3Z" style="fill:#fff"></path></g><path d="M379.15,260.17c-3.68,3.88-7,9.5-4.66,14.3.61,1.25,1.58,2.39,1.66,3.77.11,2.05-1.81,4.09-.94,5.95h1.69a57,57,0,0,0-9.61,11l8.95-8-5,7.91a47.85,47.85,0,0,1,10.06-9.68,14.27,14.27,0,0,1-2.56,6.08c2.07.85,3.95-1.86,6.19-2a10.7,10.7,0,0,1,3.11.71,6.09,6.09,0,0,0,7.09-8.17c4.58-.58,7.6-5.29,8.37-9.84a17.22,17.22,0,0,1,1-4.59c1.68-3.51,2.92-5.34.63-3.65,1.16-2-1.05-3.18-3.32-1.8,2.59-2.67,1.31-4.79-1.1-2.44a10.48,10.48,0,0,0-3.43-.94C397.34,248.38,382.12,257,379.15,260.17Z" style="fill:#407BFF"></path><path d="M365,275.44a2.43,2.43,0,0,0-2.72,1.34,7,7,0,0,0-.57,3.22,3.34,3.34,0,0,0,.17,1.41c.51,1.24,2.21,1.42,3.52,1.14a6.16,6.16,0,0,0,3.75-2.18,3.6,3.6,0,0,0,.21-4.14,2.56,2.56,0,0,0-3.84-.32Z" style="fill:#407BFF"></path><g style="opacity:0.4"><path d="M379.15,260.17c-3.68,3.88-7,9.5-4.66,14.3.61,1.25,1.58,2.39,1.66,3.77.11,2.05-1.81,4.09-.94,5.95h1.69a57,57,0,0,0-9.61,11l8.95-8-5,7.91a47.85,47.85,0,0,1,10.06-9.68,14.27,14.27,0,0,1-2.56,6.08c2.07.85,3.95-1.86,6.19-2a10.7,10.7,0,0,1,3.11.71,6.09,6.09,0,0,0,7.09-8.17c4.58-.58,7.6-5.29,8.37-9.84a17.22,17.22,0,0,1,1-4.59c1.68-3.51,2.92-5.34.63-3.65,1.16-2-1.05-3.18-3.32-1.8,2.59-2.67,1.31-4.79-1.1-2.44a10.48,10.48,0,0,0-3.43-.94C397.34,248.38,382.12,257,379.15,260.17Z"></path><path d="M365,275.44a2.43,2.43,0,0,0-2.72,1.34,7,7,0,0,0-.57,3.22,3.34,3.34,0,0,0,.17,1.41c.51,1.24,2.21,1.42,3.52,1.14a6.16,6.16,0,0,0,3.75-2.18,3.6,3.6,0,0,0,.21-4.14,2.56,2.56,0,0,0-3.84-.32Z"></path></g><path d="M339.56,166.55c-4.86,3.11-8,8.36-10,13.75-1.28,3.42-2.22,7.12-1.58,10.71s3.2,7.05,6.78,7.78a11.72,11.72,0,0,1,2.71.61c1,.48,1.7,1.46,2.68,2,1.33.7,3.08.52,4.22,1.51a4.64,4.64,0,0,1,1.16,3.63,8.52,8.52,0,0,0,.42,3.87c.58,1.18,2.23,1.94,3.24,1.1.25-3.23.51-6.46.76-9.69.13-1.62.54-3.6,2.1-4,0,2,0,4.09,0,6.13a1.37,1.37,0,0,0,2-.32,4,4,0,0,0,.57-2.15c.23-3.6.28-7.21.17-10.82l-1.81-.12.13-4a8,8,0,0,1,3.75-.46,27.57,27.57,0,0,0,1.26,9.59c2.11-.79,2.25-3.68,2-5.93q-.56-5.22-1.12-10.45c.19,1.71,2.58-1.76,2.57-1.73.68-1.19,0-4.52-.29-5.8-.58-2.47-1.34-4.54-3.49-6C353.13,162.47,343.93,163.76,339.56,166.55Z" style="fill:#407BFF"></path><path d="M320.34,180.68a2,2,0,0,0-1.72,2.39,2.1,2.1,0,0,0,2.68,1.35,2.33,2.33,0,0,0,1.4-2.43,2.73,2.73,0,0,0-1.89-2.16c-.38-.11-1,.27-.67.5Z" style="fill:#407BFF"></path><path d="M334,203.1a1.16,1.16,0,0,0-1,1.4,1.23,1.23,0,0,0,1.57.79,1.35,1.35,0,0,0,.82-1.42,1.57,1.57,0,0,0-1.11-1.27c-.22-.07-.58.16-.39.29Z" style="fill:#407BFF"></path><g style="opacity:0.8"><path d="M339.56,166.55c-4.86,3.11-8,8.36-10,13.75-1.28,3.42-2.22,7.12-1.58,10.71s3.2,7.05,6.78,7.78a11.72,11.72,0,0,1,2.71.61c1,.48,1.7,1.46,2.68,2,1.33.7,3.08.52,4.22,1.51a4.64,4.64,0,0,1,1.16,3.63,8.52,8.52,0,0,0,.42,3.87c.58,1.18,2.23,1.94,3.24,1.1.25-3.23.51-6.46.76-9.69.13-1.62.54-3.6,2.1-4,0,2,0,4.09,0,6.13a1.37,1.37,0,0,0,2-.32,4,4,0,0,0,.57-2.15c.23-3.6.28-7.21.17-10.82l-1.81-.12.13-4a8,8,0,0,1,3.75-.46,27.57,27.57,0,0,0,1.26,9.59c2.11-.79,2.25-3.68,2-5.93q-.56-5.22-1.12-10.45c.19,1.71,2.58-1.76,2.57-1.73.68-1.19,0-4.52-.29-5.8-.58-2.47-1.34-4.54-3.49-6C353.13,162.47,343.93,163.76,339.56,166.55Z" style="fill:#407BFF"></path><path d="M320.34,180.68a2,2,0,0,0-1.72,2.39,2.1,2.1,0,0,0,2.68,1.35,2.33,2.33,0,0,0,1.4-2.43,2.73,2.73,0,0,0-1.89-2.16c-.38-.11-1,.27-.67.5Z" style="fill:#407BFF"></path><path d="M334,203.1a1.16,1.16,0,0,0-1,1.4,1.23,1.23,0,0,0,1.57.79,1.35,1.35,0,0,0,.82-1.42,1.57,1.57,0,0,0-1.11-1.27c-.22-.07-.58.16-.39.29Z" style="fill:#407BFF"></path></g><g style="opacity:0.4"><path d="M339.56,166.55c-4.86,3.11-8,8.36-10,13.75-1.28,3.42-2.22,7.12-1.58,10.71s3.2,7.05,6.78,7.78a11.72,11.72,0,0,1,2.71.61c1,.48,1.7,1.46,2.68,2,1.33.7,3.08.52,4.22,1.51a4.64,4.64,0,0,1,1.16,3.63,8.52,8.52,0,0,0,.42,3.87c.58,1.18,2.23,1.94,3.24,1.1.25-3.23.51-6.46.76-9.69.13-1.62.54-3.6,2.1-4,0,2,0,4.09,0,6.13a1.37,1.37,0,0,0,2-.32,4,4,0,0,0,.57-2.15c.23-3.6.28-7.21.17-10.82l-1.81-.12.13-4a8,8,0,0,1,3.75-.46,27.57,27.57,0,0,0,1.26,9.59c2.11-.79,2.25-3.68,2-5.93q-.56-5.22-1.12-10.45c.19,1.71,2.58-1.76,2.57-1.73.68-1.19,0-4.52-.29-5.8-.58-2.47-1.34-4.54-3.49-6C353.13,162.47,343.93,163.76,339.56,166.55Z" style="fill:#fff;opacity:0.5"></path><g style="opacity:0.2"><path d="M320.34,180.68a2,2,0,0,0-1.72,2.39,2.1,2.1,0,0,0,2.68,1.35,2.33,2.33,0,0,0,1.4-2.43,2.73,2.73,0,0,0-1.89-2.16c-.38-.11-1,.27-.67.5Z" style="fill:#fff"></path></g><g style="opacity:0.2"><path d="M334,203.1a1.16,1.16,0,0,0-1,1.4,1.23,1.23,0,0,0,1.57.79,1.35,1.35,0,0,0,.82-1.42,1.57,1.57,0,0,0-1.11-1.27c-.22-.07-.58.16-.39.29Z" style="fill:#fff"></path></g></g><path d="M369.52,208.18a14.84,14.84,0,0,0-7.1,8.57A34.2,34.2,0,0,0,360.91,228c0,2.4.42,5.3,2.63,6.23a13.62,13.62,0,0,1,1.79.65c.77.46,1.16,1.34,1.75,2s1.68,1.15,2.36.56c.49-1.24-.45-2.52-1.11-3.67a9.7,9.7,0,0,1,.5-10.2,1.58,1.58,0,0,0-.37,1.27,17.22,17.22,0,0,0,9.48-2.13,22.83,22.83,0,0,1-4.38,4.67l4.42-2a5,5,0,0,1-1.68,3.82l5.29-.3a17.7,17.7,0,0,1-6.55,9.59,6.36,6.36,0,0,0,7.18-1.69,10,10,0,0,1,1.68-1.92,12.67,12.67,0,0,1,2.35-.94,9.28,9.28,0,0,0,3.52-3.33c3.18-4.37,6.25-10,4-14.91C389.66,206.63,378.2,203.89,369.52,208.18Z" style="fill:#407BFF"></path><path d="M392.07,226.25a2.56,2.56,0,0,0-2.22,3.1,2.73,2.73,0,0,0,3.47,1.74,3,3,0,0,0,1.82-3.15,3.53,3.53,0,0,0-2.45-2.8c-.5-.15-1.29.34-.87.65Z" style="fill:#407BFF"></path><path d="M377.53,238.41a2.56,2.56,0,0,0-2.23,3.1,2.74,2.74,0,0,0,3.47,1.75,3,3,0,0,0,1.82-3.16,3.51,3.51,0,0,0-2.45-2.79c-.5-.16-1.29.34-.87.64Z" style="fill:#407BFF"></path><path d="M360.39,243.87a1.63,1.63,0,0,0-1.41,2,1.73,1.73,0,0,0,2.2,1.1,1.9,1.9,0,0,0,1.15-2,2.25,2.25,0,0,0-1.55-1.77c-.32-.09-.82.22-.55.41Z" style="fill:#407BFF"></path><path d="M312.87,142.12c-3.52.14-7.16.64-10.18,2.47-3.48,2.11-5.76,5.76-7.36,9.5a8.19,8.19,0,0,0-.88,3.54c.06,1.69,1.06,3.33.74,5-.46,2.42-3.56,4.55-2.31,6.67a2.73,2.73,0,0,0,3.09,1,8,8,0,0,0,2.91-1.86,1.84,1.84,0,0,1,.23,2.32,15.84,15.84,0,0,0-1.31,2.19,3.16,3.16,0,0,0,2.41,3.83,4.37,4.37,0,0,0,4.37-2q-1.11,3.82-2.2,7.66a3.87,3.87,0,0,0,0,3c.67,1.18,2.39,1.3,3.64.77,5-2.14,4.07-10.13,8.17-13.74,2-1.73,4.94-2.31,6.26-4.56a16.72,16.72,0,0,1,1.23-2.38,8.53,8.53,0,0,1,2.79-1.78c4.66-2.57,5.7-10.24,3.48-14.81C325.29,143.46,318.31,141.91,312.87,142.12Z" style="fill:#407BFF"></path><path d="M312.87,142.12c-3.52.14-7.16.64-10.18,2.47-3.48,2.11-5.76,5.76-7.36,9.5a8.19,8.19,0,0,0-.88,3.54c.06,1.69,1.06,3.33.74,5-.46,2.42-3.56,4.55-2.31,6.67a2.73,2.73,0,0,0,3.09,1,8,8,0,0,0,2.91-1.86,1.84,1.84,0,0,1,.23,2.32,15.84,15.84,0,0,0-1.31,2.19,3.16,3.16,0,0,0,2.41,3.83,4.37,4.37,0,0,0,4.37-2q-1.11,3.82-2.2,7.66a3.87,3.87,0,0,0,0,3c.67,1.18,2.39,1.3,3.64.77,5-2.14,4.07-10.13,8.17-13.74,2-1.73,4.94-2.31,6.26-4.56a16.72,16.72,0,0,1,1.23-2.38,8.53,8.53,0,0,1,2.79-1.78c4.66-2.57,5.7-10.24,3.48-14.81C325.29,143.46,318.31,141.91,312.87,142.12Z" style="fill:#fff;opacity:0.8"></path><path d="M304.31,194.06a3.3,3.3,0,0,0,.77,3.34,3.5,3.5,0,0,0,2.73.48,3.91,3.91,0,0,0,3.23-2,3.23,3.23,0,0,0-.18-2.49c-.79-1.74-2.14-2.36-3.39-3.56A6.92,6.92,0,0,0,304.31,194.06Z" style="fill:#407BFF"></path><path d="M304.31,194.06a3.3,3.3,0,0,0,.77,3.34,3.5,3.5,0,0,0,2.73.48,3.91,3.91,0,0,0,3.23-2,3.23,3.23,0,0,0-.18-2.49c-.79-1.74-2.14-2.36-3.39-3.56A6.92,6.92,0,0,0,304.31,194.06Z" style="fill:#fff;opacity:0.8"></path><g style="opacity:0.6000000000000001"><path d="M294.66,188.34a.92.92,0,0,0-.17,1.52,1.23,1.23,0,0,0,1.66-.29,1.85,1.85,0,0,0,.16-1.78l-1.13.14Z" style="fill:#fff"></path></g><g style="opacity:0.6000000000000001"><path d="M295.68,179.05c-.12.59-.67,1-.67,1.65a1,1,0,0,0,1.37.86,3.83,3.83,0,0,1,0,1.58c0,.53.32,1.19.85,1.11s.62-.54.74-.95l.49-1.64a1.91,1.91,0,0,0,.08-1.2c-.14-.38-.68-.63-1-.35,0-.38,0-.76,0-1.14a1.74,1.74,0,0,0-1.41.11c-.25.15-.73.21-.67-.07Z" style="fill:#fff"></path></g></g><g id="freepik--Character--inject-155"><path d="M262.88,227.18C269.07,233,298.3,244.73,300.2,245a4.28,4.28,0,0,0,3.95-1.23,4.57,4.57,0,0,0-1-6.87c-7.2-4.66-19.83-13.39-25.06-17.95-4.09-3.56,9.83-35.21,1.73-39.91C266.66,171.41,255.57,220.3,262.88,227.18Z" style="fill:#407BFF"></path><g style="opacity:0.1"><path d="M262.88,227.18C269.07,233,298.3,244.73,300.2,245a4.28,4.28,0,0,0,3.95-1.23,4.57,4.57,0,0,0-1-6.87c-7.2-4.66-19.83-13.39-25.06-17.95-4.09-3.56,9.83-35.21,1.73-39.91C266.66,171.41,255.57,220.3,262.88,227.18Z"></path></g><path d="M299,245l6.92,5.68s6.25-6,6.58-6.75c0,0-3-3.81-7-4.7l-2.64-.35a2.65,2.65,0,0,0-2,.57l-1.8,1.47A2.64,2.64,0,0,0,299,245Z" style="fill:#ffb373"></path><path d="M304.51,249.56l7.74-5.86,3.18,3a1.32,1.32,0,0,1-.07,2L311.27,252a2.55,2.55,0,0,1-3.07.12Z" style="fill:#ffb373"></path><path d="M278.09,178.36c8.67,6.18-5.33,39.41-8.7,58.92-.91,5.3-35.61,2.41-39.9-3.49l3.36-53.31A10.45,10.45,0,0,1,244,169.72C246.42,169.88,259.47,165.1,278.09,178.36Z" style="fill:#407BFF"></path><path d="M230.89,211.65s.93-14.88,2.09-23.49c3.45.24,6,.16,7-.37,2.11-1.17,4.63-4.8,6-8.57C242.72,196.38,230.89,211.65,230.89,211.65Z" style="opacity:0.1"></path><path d="M269.11,238s0,10.81,2.9,19.24c3.31,9.48-11.19,12.08-19.62,6.63l-5.45-3.53s-2.64-.42-21.54-10.74c-.4-.22-1.27-2.25-.06-7.27.94-3.93.57-4.35,2.84-7.69l17.18,4.5S258.06,241.12,269.11,238Z" style="fill:#263238"></path><path d="M267.21,379.85l-5.42,24.53c-.87.24-10,1.54-9.62-.84,1.15-7.28,3.61-22.56,3.61-22.56Z" style="fill:#ffb373"></path><path d="M265.34,398.74a.26.26,0,0,1,0-.48c.17-.07,4.1-1.67,5.77-1a1.21,1.21,0,0,1,.72.68.92.92,0,0,1-.12,1.08c-.48.55-1.8.57-3.15.38A17.68,17.68,0,0,1,265.34,398.74Zm5.13-1.11a11.24,11.24,0,0,0-4.24.83c1.9.52,4.56.86,5.14.24.07-.08.15-.22,0-.56a.79.79,0,0,0-.43-.41,4.21,4.21,0,0,0-.48-.12Z" style="fill:#407BFF"></path><path d="M265.23,398.61a.23.23,0,0,1,0-.25c0-.12.68-2.89,2.16-3.82a1.84,1.84,0,0,1,1.43-.17c.68.16.8.54.84.83,0,1.2-2.76,3.13-4.1,3.53h-.11Zm2.39-3.61a5.83,5.83,0,0,0-1.8,3c1.39-.61,3.39-2.17,3.31-2.88,0-.06,0-.24-.44-.35l-.16,0A1.32,1.32,0,0,0,267.62,395Z" style="fill:#407BFF"></path><path d="M264,396.59l-10.05-1.87a.89.89,0,0,0-1,.57l-3.51,7.95c-.3.82,1.13,2.09,1.22,2.1,6,1.74,19.19,4.46,23.56,5.18s5.66-3.52,3.94-4.2c-7.74-3.08-10.37-6-12.55-8.73A2.54,2.54,0,0,0,264,396.59Z" style="fill:#263238"></path><g style="opacity:0.2"><polygon points="254.57 388.54 255.78 380.99 267.21 379.85 264.87 389.86 254.57 388.54"></polygon></g><path d="M182.7,358.43l-18,17.53c-.85-.27-9.2-4.19-7.58-6,5-5.46,15.39-16.88,15.39-16.88Z" style="fill:#ffb373"></path><path d="M170.78,373.19a.27.27,0,0,1,0-.29.28.28,0,0,1,.27-.11c.18,0,4.34.85,5.35,2.36a1.25,1.25,0,0,1,.23,1,.93.93,0,0,1-.7.83c-.7.2-1.81-.51-2.83-1.41A17,17,0,0,1,170.78,373.19Zm4.89,1.89a11.15,11.15,0,0,0-4-1.63c1.3,1.48,3.33,3.21,4.15,3,.11,0,.25-.1.32-.46a.75.75,0,0,0-.13-.58,2.9,2.9,0,0,0-.34-.36Z" style="fill:#407BFF"></path><path d="M170.76,373a.22.22,0,0,1,.11-.22c.09-.08,2.15-2.05,3.9-2a1.86,1.86,0,0,1,1.29.65.91.91,0,0,1,.24,1.14c-.62,1-4,1.11-5.36.71l-.1-.05Zm4-1.7a5.86,5.86,0,0,0-3.17,1.55c1.5.26,4,.05,4.34-.59,0-.06.12-.21-.17-.53l-.15-.07A1.29,1.29,0,0,0,174.73,371.32Z" style="fill:#407BFF"></path><path d="M170.82,370.65l-7.37-7.07a.89.89,0,0,0-1.15-.07l-7.3,4.72c-.7.52-.2,2.36-.13,2.43,4.09,4.76,13.6,14.25,16.86,17.25s6.66.17,5.59-1.36c-4.77-6.81-5.37-10.7-5.69-14.17A2.59,2.59,0,0,0,170.82,370.65Z" style="fill:#263238"></path><g style="opacity:0.2"><polygon points="167.37 358.76 172.52 353.11 182.7 358.43 175.25 365.52 167.37 358.76"></polygon></g><path d="M242.29,263.89c.41,10.8,15.07,41,18.06,59.73,2.29,14.47-4.19,41.89-7.62,57.28a4.77,4.77,0,0,0,.88,4.08s8.92,1.55,11.74,1.68c9,.42,16-44.37,17.66-55.32,2.74-18.6-2.37-51.06-13.93-82.53-1.94-5.28-7.69-3.5-14.91-3.07C252.86,245.82,241.89,253.4,242.29,263.89Z" style="fill:#263238"></path><path d="M250.42,252.42c-1.36-2.23-5.34,21.86-5.34,21.86L251.47,294S260.85,269.53,250.42,252.42Z" style="opacity:0.2"></path><path d="M225.47,247.8c-40.17,96.43-59.33,100-57,107.45,0,0,7.14,5.64,8.9,7.85,4.16,5.24,36-28.19,41.4-37.87,12.05-21.63,26.63-45.39,33.58-71.08,1.47-5.43-.76-11.41-7-15C244.22,238.49,229.51,238.11,225.47,247.8Z" style="fill:#263238"></path><path d="M281.82,144.14a3.31,3.31,0,0,0,2.84-2.65,6.67,6.67,0,0,0-.6-4.06,9.11,9.11,0,0,0-3.6-4.35,10.39,10.39,0,0,0-7-.8c-2.35.42-4.62,1.22-7,1.58a43.34,43.34,0,0,0-5.11.72,5.76,5.76,0,0,0-3.94,3c-.65,1.6.11,3.78,1.78,4.19-2.43.7-6,1.18-7.92,2.87s-2.9,4.61-1.65,6.81a7.45,7.45,0,0,0,3.89,3.21s-4,9.07,2.14,11.44c5.54,2.14,17,2.54,17,2.54C277.68,165.49,281.82,144.14,281.82,144.14Z" style="fill:#263238"></path><path d="M289.14,153.77a10.84,10.84,0,0,1,0,5.19c-.57,1.65-2.27,3.06-4,2.67,1.41,1.66.57,4.41-1.19,5.7s-4.07,1.48-6.25,1.51a58.74,58.74,0,0,1-6.89-.31,5.54,5.54,0,0,1-3.54-1.29c-1.4-1.48-.87-3.88-.08-5.76a59.2,59.2,0,0,1,8-12.81c1.74-2.25,6-7.72,9.49-6.27S288.67,150.71,289.14,153.77Z" style="fill:#263238"></path><path d="M260.57,166.24s0,0,0,0a38.13,38.13,0,0,0,1.61-8.35l7.26,8.51c-1.73,2.94-3.34,6.59-.28,8.91a4.62,4.62,0,0,1,1.86,3.64,4.11,4.11,0,0,1-.19,1.24,5,5,0,0,1-8.29,2.12c-3.4-3.27-4.94-5.8-5.63-7.53a3.51,3.51,0,0,1,.93-3.81,10.12,10.12,0,0,0,2.07-3.06Z" style="fill:#ffb373"></path><path d="M260.56,166.26l0,0s0,0,0,0a8.68,8.68,0,0,0,.56-.79L269,167.2c-2.82,2.47-7.35,1.86-9.07.7Z" style="opacity:0.30000000000000004;isolation:isolate"></path><path d="M274.31,165.09l.73-.37h0c2.32-1.91,3.6-4.38,5.27-8.29.44-1,.89-2.1,1.4-3.31a11.51,11.51,0,0,0,.93-5.08,11.81,11.81,0,0,0-.45-2.7c-1.77,3.42-2.74,7.17-3.89,10.82A33.29,33.29,0,0,1,274.31,165.09Z" style="fill:#263238"></path><path d="M256.72,156.23a10,10,0,0,0,7.68,11h.06a10.93,10.93,0,0,0,5.68-.23,12.19,12.19,0,0,0,2-.79c.27-.12.52-.26.76-.39a14.52,14.52,0,0,0,2.16-1.46h0c2.32-1.91,3.6-4.38,5.27-8.29.44-1,.89-2.1,1.4-3.31a11.51,11.51,0,0,0,.93-5.08,12,12,0,0,0-.45-2.7,9.15,9.15,0,0,0-.42-1.14,10.86,10.86,0,0,0-10.65-6.74c-3.87.17-7,2.58-9.41,5.87-.24.33-.46.67-.68,1A29.68,29.68,0,0,0,256.72,156.23Z" style="fill:#ffb373"></path><path d="M278,158.72a24.87,24.87,0,0,1-.4,2.84,12.6,12.6,0,0,1-2.52,2.82h0a14.52,14.52,0,0,1-2.16,1.46c-.24.13-.49.27-.76.39a12.19,12.19,0,0,1-2,.79,11,11,0,0,1-5.68.23l-.06,0a10,10,0,0,1-7.68-11c.08-.72.2-1.47.36-2.23,1.1,1.4,4.86,3.54,18.05,2.24.58-.06,1.14-.43,1.7-.26C277.86,156.28,278.06,157.64,278,158.72Z" style="opacity:0.2;isolation:isolate"></path><path d="M268.91,150.82c-.22.63-.73,1-1.13.89s-.56-.78-.34-1.41.74-1,1.14-.89S269.09,150.21,268.91,150.82Z" style="fill:#263238"></path><path d="M261.93,148.35c-.23.64-.74,1-1.14.89s-.55-.78-.34-1.41.74-1,1.14-.88S262.14,147.72,261.93,148.35Z" style="fill:#263238"></path><path d="M263.68,150.26a18,18,0,0,1-3.63,3.24,2.84,2.84,0,0,0,2.06,1.21Z" style="fill:#e8483f"></path><path d="M262.12,158.42a5.79,5.79,0,0,1-.93-.25.21.21,0,0,1-.13-.25h0a.21.21,0,0,1,.26-.11,5.17,5.17,0,0,0,4.67-.54.2.2,0,0,1,.24.31A5.32,5.32,0,0,1,262.12,158.42Z" style="fill:#263238"></path><path d="M272.22,150.39a.38.38,0,0,1-.31-.33,4.58,4.58,0,0,0-2.25-2.9.41.41,0,0,1-.17-.54.38.38,0,0,1,.51-.17h0a5.29,5.29,0,0,1,2.67,3.5.4.4,0,0,1-.34.44h0A.25.25,0,0,1,272.22,150.39Z" style="fill:#263238"></path><path d="M261,144.32a.43.43,0,0,1-.3-.26.41.41,0,0,1,.24-.51,3.73,3.73,0,0,1,3.54.38.39.39,0,0,1,.09.52l0,0a.38.38,0,0,1-.54.08h0a3,3,0,0,0-2.78-.25A.44.44,0,0,1,261,144.32Z" style="fill:#263238"></path><path d="M275.91,157.75c.24.52,1.84-1.61,2.41-1.6a7.61,7.61,0,0,1,2,.27c-1.68,3.91-2.95,6.38-5.28,8.29a22,22,0,0,0,9-8,12.81,12.81,0,0,0-.56-13c-.19-.29-.62-.27-1-.21s-2,0-2.72,0A3.31,3.31,0,0,0,277.2,145C278.83,150.72,275.17,156.16,275.91,157.75Z" style="fill:#263238"></path><path d="M281.7,159.81a5.85,5.85,0,0,1-3.88,2.18c-2,.21-2.69-1.72-1.83-3.49.79-1.59,2.78-3.62,4.68-3a2.68,2.68,0,0,1,1,4.35Z" style="fill:#ffb373"></path><path d="M263.73,138.88a4.38,4.38,0,0,0-1.71,1.41,1.72,1.72,0,0,0,.09,2.08,2.42,2.42,0,0,0,1.94.44,14.6,14.6,0,0,0,5.58-1.66,5.6,5.6,0,0,0-1.76,1.09,1.9,1.9,0,0,0-.53,1.9c.3.85,1.3,1.19,2.18,1.34,3.06.51,6.19,0,9.24-.61,1.52-.28,3.28-.73,3.9-2.15.75-1.7-.7-3.63-2.36-4.45A17.81,17.81,0,0,0,263.73,138.88Z" style="fill:#263238"></path><path d="M265.89,160.2a12.6,12.6,0,0,0-1.37,3.63,14.68,14.68,0,0,0-.51,3.35,20,20,0,0,0-1.1-3c-.22-.57-1.43-4.05-1-3.8A4.23,4.23,0,0,0,265.89,160.2Z" style="fill:#263238"></path><path d="M246,179.22c-1.38,3.77-3.9,7.4-6,8.57-.95.53-3.52.61-7,.37-11.85-.84-34-5.58-35.52-9.56-1.29-3.35-1.58-5.55-1.34-7l-7.54-39.4a13.24,13.24,0,0,1-.23-2.76l-2.48-.87a11,11,0,0,1,3.1-.91,7.85,7.85,0,0,1,8.18,4.5l5.45,11.64a70.14,70.14,0,0,1,6.46,24.72v.13c12.87,0,35.13.48,36,1.12C247.57,171.54,247.34,175.45,246,179.22Z" style="fill:#407BFF"></path><path d="M195.89,415.5l36.67-12.84L143.19,147.52l-61.9,21.69,80.53,229.9A26.74,26.74,0,0,0,195.89,415.5Z" style="fill:#407BFF"></path><g style="opacity:0.8"><path d="M195.89,415.5l36.67-12.84L143.19,147.52l-61.9,21.69,80.53,229.9A26.74,26.74,0,0,0,195.89,415.5Z" style="fill:#fff"></path></g><rect x="157.37" y="332.89" width="52.08" height="52.08" transform="translate(-109.11 81.62) rotate(-19.46)" style="fill:#263238"></rect><rect x="137.42" y="276.44" width="52.08" height="52.08" transform="translate(-91.44 71.75) rotate(-19.46)" style="fill:#263238"></rect><rect x="137.42" y="276.44" width="52.08" height="52.08" transform="translate(-91.44 71.75) rotate(-19.46)" style="fill:#fff;opacity:0.2"></rect><rect x="117.47" y="219.99" width="52.08" height="52.08" transform="translate(-73.78 61.87) rotate(-19.46)" style="fill:#263238"></rect><rect x="117.47" y="219.99" width="52.08" height="52.08" transform="translate(-73.78 61.87) rotate(-19.46)" style="fill:#fff;opacity:0.4"></rect><rect x="97.52" y="163.55" width="52.08" height="52.08" transform="translate(-56.11 52) rotate(-19.46)" style="fill:#263238"></rect><rect x="97.52" y="163.55" width="52.08" height="52.08" transform="translate(-56.11 52) rotate(-19.46)" style="fill:#fff;opacity:0.6000000000000001"></rect><path d="M194.43,408.13l38.33-6.35-44.2-266.7-64.71,10.73,39.84,240.32A26.73,26.73,0,0,0,194.43,408.13Z" style="fill:#407BFF"></path><g style="opacity:0.8"><path d="M194.43,408.13l38.33-6.35-44.2-266.7-64.71,10.73,39.84,240.32A26.73,26.73,0,0,0,194.43,408.13Z" style="fill:#fff"></path></g><rect x="165.82" y="324.21" width="52.08" height="52.08" transform="translate(-55.56 36.77) rotate(-9.57)" style="fill:#407BFF"></rect><rect x="155.86" y="265.18" width="52.08" height="52.08" transform="translate(-45.88 34.29) rotate(-9.57)" style="fill:#407BFF"></rect><rect x="155.86" y="265.18" width="52.08" height="52.08" transform="translate(-45.88 34.29) rotate(-9.57)" style="fill:#fff;opacity:0.2"></rect><rect x="145.91" y="206.14" width="52.08" height="52.08" transform="translate(-36.21 31.82) rotate(-9.57)" style="fill:#407BFF"></rect><rect x="145.91" y="206.14" width="52.08" height="52.08" transform="translate(-36.21 31.82) rotate(-9.57)" style="fill:#fff;opacity:0.4"></rect><rect x="135.96" y="147.11" width="52.08" height="52.08" transform="translate(-26.53 29.34) rotate(-9.57)" style="fill:#407BFF"></rect><rect x="135.96" y="147.11" width="52.08" height="52.08" transform="translate(-26.53 29.34) rotate(-9.57)" style="fill:#fff;opacity:0.6000000000000001"></rect><path d="M195.06,401.62l38.86.11.74-270.34-65.58-.18-.67,243.6A26.72,26.72,0,0,0,195.06,401.62Z" style="fill:#407BFF"></path><g style="opacity:0.8"><path d="M195.06,401.62l38.86.11.74-270.34-65.58-.18-.67,243.6A26.72,26.72,0,0,0,195.06,401.62Z" style="fill:#fff"></path></g><path d="M196,385.13a7.16,7.16,0,1,1-7.16-7.15A7.15,7.15,0,0,1,196,385.13Z" style="fill:none;stroke:#407BFF;stroke-miterlimit:10;stroke-width:2px"></path><rect x="176.1" y="318.08" width="52.08" height="52.08" style="fill:#407BFF"></rect><rect x="176.1" y="258.21" width="52.08" height="52.08" style="fill:#407BFF"></rect><rect x="176.1" y="258.21" width="52.08" height="52.08" style="opacity:0.2"></rect><rect x="176.1" y="198.34" width="52.08" height="52.08" style="fill:#407BFF"></rect><rect x="176.1" y="198.34" width="52.08" height="52.08" style="opacity:0.4"></rect><rect x="176.1" y="138.48" width="52.08" height="52.08" style="fill:#407BFF"></rect><rect x="176.1" y="138.48" width="52.08" height="52.08" style="opacity:0.6000000000000001"></rect><path d="M181.4,131.36s.18,6.32,1.7,6a25.9,25.9,0,0,1,4.63-.07,2,2,0,0,0,1.79-1l3-5Z" style="fill:#ffb373"></path><path d="M181.4,131.36l4.47-2.78h3.6a6.47,6.47,0,0,1,5.31,2.78H181.4Z" style="fill:#ffb373"></path></g></svg>
