<svg width="40" height="40" viewBox="0 0 40 40" fill="none" xmlns="http://www.w3.org/2000/svg">
<path d="M38.401 0.46875H2.10214C1.22919 0.46875 0.523926 1.16699 0.523926 2.03125V37.9688C0.523926 38.833 1.22919 39.5312 2.10214 39.5312H38.401C39.274 39.5312 39.9793 38.833 39.9793 37.9688V2.03125C39.9793 1.16699 39.274 0.46875 38.401 0.46875ZM36.8228 36.4062H27.7432V24.4043H32.8724L33.6417 18.5107H27.7432V14.7461C27.7432 13.0371 28.2216 11.875 30.6925 11.875H33.844V6.60156C33.2965 6.52832 31.4273 6.36719 29.2474 6.36719C24.7002 6.36719 21.5881 9.11621 21.5881 14.1602V18.5059H16.4491V24.3994H21.5931V36.4062H3.68035V3.59375H36.8228V36.4062Z" fill="#F9F7F7"/>
</svg>
